<?xml version="1.0" encoding="UTF-8"?>
<svg id="Layer_1" xmlns="http://www.w3.org/2000/svg" xmlns:xlink="http://www.w3.org/1999/xlink" version="1.1" viewBox="0 0 308.1 265">
  <!-- Generator: Adobe Illustrator 29.1.0, SVG Export Plug-In . SVG Version: 2.1.0 Build 142)  -->
  <defs>
    <style>
      .st0 {
        fill: none;
      }

      .st1 {
        stroke: #005baa;
        stroke-miterlimit: 10;
        stroke-width: 2.4px;
      }

      .st1, .st2 {
        fill: #fff5e9;
      }

      .st3 {
        fill: #065ca9;
      }

      .st4, .st5 {
        fill: #005baa;
      }

      .st6 {
        fill: #ed1c24;
      }

      .st7 {
        fill: #bc2027;
        opacity: .5;
      }

      .st7, .st5, .st8 {
        isolation: isolate;
      }

      .st9 {
        fill: #fff;
      }

      .st5 {
        opacity: .3;
      }

      .st10, .st8 {
        fill: #00c0f3;
      }

      .st8 {
        opacity: .3;
      }

      .st11 {
        clip-path: url(#clippath);
      }
    </style>
    <clipPath id="clippath">
      <path class="st0" d="M106.9,143.2c1.6,0,2.9.1,4.3.4v-.2c0,0,.2,0,.2,0,.2-2.4,1.1-5.5,2.7-7.5,2.1-2.6,4.7-3.1,7-3.2,1.3-.2,2.7-.2,3.5-.2h5.6c3.9,0,12.1,0,12,8.7,0,.6,0,1.1-.1,1.8h.3s-1.3,5.3-1.3,5.3c4.4-3.7,10-5.5,16.9-5.5,3.3,0,6.1.5,8.4,1.3h0c0,0,26.4,0,26.4,0l2.4-9.9h31c0,0-1.6,6.4-1.6,6.4,27.5-12.8,45.1-32.5,45.2-54.7,0-38.7-53.3-96.1-119.3-96.2S30.9,46.5,30.9,85.2c0,24.4,21.2,45.9,53.4,58.5h18c1.5-.3,3.1-.6,4.7-.5Z"/>
    </clipPath>
  </defs>
  <path class="st10" d="M271.9,53.6c-4.8.6-5.1,1.2-5.5,9.4-.4-8.2-.7-8.7-5.5-9.4,4.8-.6,5.1-1.2,5.5-9.4.4,8.2.7,8.7,5.5,9.4Z"/>
  <path class="st4" d="M281.5,62.2c-4.8.6-5.1,1.2-5.5,9.4-.4-8.2-.7-8.7-5.5-9.4,4.8-.6,5.1-1.2,5.5-9.4.4,8.2.7,8.7,5.5,9.4Z"/>
  <path class="st4" d="M61.6,61.2c-4.8.6-5.1,1.2-5.5,9.4-.4-8.2-.7-8.7-5.5-9.4,4.8-.6,5.1-1.2,5.5-9.4.4,8.2.7,8.7,5.5,9.4Z"/>
  <path class="st10" d="M75.3,76.7c-7.2,1-7.7,1.7-8.2,14-.6-12.3-1-13-8.2-14,7.2-1,7.7-1.7,8.2-14,.6,12.3,1,13,8.2,14Z"/>
  <path class="st10" d="M254.3,95.1c-8.5,1.1-9.1,2-9.7,16.5-.7-14.5-1.2-15.4-9.7-16.5,8.5-1.1,9.1-2,9.7-16.5.7,14.5,1.2,15.4,9.7,16.5Z"/>
  <g>
    <path class="st4" d="M32.3,206.5c4,0,4.7,0,6.3.9,2,1,3.2,3.1,3.2,5.9s-.8,4.1-2.3,5.4c-1.1.9-2.1,1.2-4.3,1.5,2.4.3,3.3.5,4.3,1.1,1.7.9,2.6,2.8,2.6,5.4s-1.3,5.4-3.4,6.7c-1.5.9-3.1,1.2-6.6,1.2h-10.7v-27.9h11ZM27.1,218.1h4.4c1.5,0,2.4-.2,3.1-.7.9-.6,1.4-1.6,1.4-2.8s-.6-2.2-1.5-2.6c-.7-.3-1.5-.5-2.9-.5h-4.5v6.5ZM27.1,229.5h4.3c1.8,0,2.6-.2,3.4-.6.9-.5,1.4-1.6,1.4-2.9s-.6-2.6-1.7-3c-.8-.4-1.5-.5-3.1-.5h-4.3v6.9Z"/>
    <path class="st4" d="M66.4,206.5c3.2,0,4.6.2,6.1.9,2.3,1.1,3.6,3.6,3.6,6.7s-1.1,5.2-3,6.5c-1.3,1-2.5,1.3-5.2,1.6l9.3,12.2h-7.3l-8.3-11.8v11.8h-5.9v-27.9h10.7ZM61.7,218.9h3.7c1.8,0,2.6-.2,3.5-.8.9-.6,1.4-1.7,1.4-3s-.5-2.4-1.4-2.8c-.7-.4-1.5-.5-3.4-.5h-3.8v7.1Z"/>
    <path class="st4" d="M112.7,219.6c0,5.2-1.4,9.5-3.9,12.2-2,2-4.9,3.2-8.4,3.2-7.7,0-12-5.4-12-15s1.1-8.4,3.1-10.7c1.9-2.2,5.1-3.4,9.1-3.4,8.2,0,12.1,4.4,12.1,13.8ZM94.3,220.4c0,5.9,2.3,9.2,6.2,9.2s6.3-3.5,6.3-9.5-2.1-8.2-6.2-8.2-6.3,3-6.3,8.6Z"/>
    <path class="st4" d="M146.4,206.5v5.9h-7.9v22h-5.9v-22h-8v-5.9h21.8Z"/>
    <path class="st4" d="M175.1,217.1v-10.7h5.9v27.9h-5.9v-11.3h-9.9v11.3h-5.9v-27.9h5.9v10.7h9.9Z"/>
    <path class="st4" d="M213.8,206.5v5.6h-12.5v5.8h12.5v5.3h-12.5v5.9h12.5v5.3h-18.2v-27.9h18.2Z"/>
    <path class="st4" d="M239,206.5c3.2,0,4.6.2,6.1.9,2.3,1.1,3.6,3.6,3.6,6.7s-1.1,5.2-3,6.5c-1.3,1-2.5,1.3-5.2,1.6l9.3,12.2h-7.3l-8.3-11.8v11.8h-5.9v-27.9h10.7ZM234.2,218.9h3.7c1.8,0,2.6-.2,3.5-.8.9-.6,1.4-1.7,1.4-3s-.5-2.4-1.4-2.8c-.7-.4-1.5-.5-3.4-.5h-3.8v7.1Z"/>
    <path class="st4" d="M279.3,215.1c-1.4-1.5-2.1-2-3.4-2.6-1.4-.7-3-1-4.3-1-2.6,0-4.2,1.3-4.2,3.2s.7,2.2,4.9,3.3c2.9.8,4.6,1.5,5.8,2.7,1.5,1.4,2.3,3.3,2.3,5.6,0,5.1-4.1,8.8-9.6,8.8s-5.6-.8-8.4-2.9v-6.1c2.6,2.8,4.9,3.9,8.1,3.9s4.3-1.3,4.3-3.2-1.1-2.7-4.7-3.6c-3.2-.8-5.3-1.8-6.6-3.1-1.3-1.4-2-3.2-2-5.3,0-5.2,4.1-8.9,9.9-8.9s5.4.8,8.1,2.7v6.6Z"/>
  </g>
  <rect class="st6" x="14.6" y="243.7" width="271.5" height="12.4"/>
  <g>
    <path class="st4" d="M56.1,142c8.2,0,10.7.4,13.1,2.2,1.9,1.3,2.8,3.6,2.8,6.6,0,4.8-2.5,10.1-5.9,12.6-1.8,1.3-4.1,2.2-7.8,3v.3c3.4.5,4.2.7,5.3,1.4,2.2,1.3,3.3,3.3,3.3,6.2,0,6.2-3.8,12.7-9,15.3-2.7,1.3-6.3,1.9-12.4,1.9H13.3l11.9-49.5h30.9ZM35,180.8h6.3c4.8,0,7.5-2,7.5-5.5s-1.2-3-6.4-3h-5.3l-2.1,8.5ZM39.3,163c1.9,0,3.6,0,4.5,0,3.9,0,4.9-.1,6.2-.9,1.7-1,2.7-2.7,2.7-4.7s-1-2.9-6-2.9h-5.5l-2,8.4Z"/>
    <path class="st4" d="M107.3,169c-1.9-.1-2.7-.2-3.8-.2-3.1,0-5.9.7-7.9,2-1.7,1.2-3.3,4.2-4.3,8.5l-3,12.3h-18.8l10-41.8h16.9c-.1.6-.2,1-.3,1.1l-.7,3.6c0,.3-.4,1.6-1,3.6,0,0-.1.8-.4,1.8h.2c1.9-4.6,3.3-6.8,5.4-8.4,2-1.6,4.6-2.4,7.3-2.4s3.1.1,4.9.6l-4.6,19.2Z"/>
    <path class="st4" d="M124.7,191.6h-18.8l10-41.8c3.8.4,6.7.5,10.2.5s5.8-.1,8.6-.5l-10,41.8ZM124.3,147.4c-2.7,0-4.9-.2-5.9-.6-.7-.3-1-1-1-2.4s.7-3.9,1.4-4.8c.6-.7,1.1-1,3-1.1,1-.1,2.3-.2,2.8-.2h5.6c5.3,0,6.2.4,6.2,2.7s-.7,4.3-1.8,5.3c-.9.9-2.3,1.1-5.9,1.1h-4.5Z"/>
    <path class="st4" d="M181.5,182.1c-1.6,6.6-2.8,9.1-5.9,12.3-4.8,5-12,7.2-22.8,7.2s-13.5-.8-19.5-2.2l1.1-10c6.9,1.4,10.8,1.9,15.2,1.9s9.7-1.4,11.7-3.9q.7-.8,1.6-3.9t1.1-3.4h-.4c-3.9,5.6-8,7.7-15.2,7.7s-12.9-3.7-12.9-11.4,2.9-16.2,6.6-21c3.7-4.8,8.7-6.9,15.7-6.9s8.1,1.1,9.7,3.3c1,1.3,1.3,2.6,1.7,5.6h.4c.2-2.3.2-2.5,1.3-6.9v-.7h18.1l-7.8,32.3ZM154.5,173c0,3,1.5,4.4,4.5,4.4s3.9-1,5.4-2.7c1.5-1.6,2.8-5.6,2.8-8.2s-1.7-4.1-4.6-4.1c-4.8,0-8.2,4.3-8.2,10.6Z"/>
    <path class="st4" d="M217.1,146.8c-1.1,4.7-2.2,7.9-3.3,10.5h.4c2.8-5.6,8.3-8.5,16-8.5s6.9.8,9.1,2.5c2.1,1.5,3,3.5,3,6.8s-.3,4.2-.8,6.2l-6.6,27.5h-18.9l5.4-22.6c.3-1.3.5-2.5.5-3.1,0-1.8-1.3-2.8-3.6-2.8-3.6,0-5.7,2.5-7.2,8.5l-4.8,20.1h-18.8l12.4-51.8h18.9l-1.7,7Z"/>
    <path class="st4" d="M274.5,149.7h12.9l-3.4,14h-12.9l-2.4,9.7c-.4,2.1-.7,3.8-.7,4.8,0,2.2,1.4,3,4.6,3s3.6-.1,6.2-.7l-2.5,10.2c-4.5.9-10.8,1.5-15.9,1.5-8.8,0-12.5-2.2-12.5-7.5s.1-2.9.5-4.5l3.7-16.6h-5.6l2.2-9.1c8.1-5.8,11.1-8.2,16.8-13.4h11l-2.1,8.5Z"/>
  </g>
  <g class="st11">
    <g>
      <path class="st1" d="M124.9,17.8s10.1,7.2,10,27c-.1,19.8-1.2,35.2-1.2,35.2,0,0-1,9.8-6.6,14.2-5.6,4.4-11.4,9.8-18.2,8.9-6.8-.9-10.2-.6-13.6-2.3s-9.6-10.5-10.8-12.3c-1.1-1.7-3.6-9.1-4.1-15.3-.5-6.2-.2-18.4-.2-22.8s.2-19.2,2-24.3,12.1-20.2,42.7-8.3Z"/>
      <g>
        <path class="st1" d="M215.7,93.5s4.5,8.2,3.4,9.7c-1,1.5-7.1,7.8-8.1,8.1-.9.3-5.7,3.5-5.7,3.5,0,0-8.4,0-9.3-.3s-6.9-4.5-6.9-4.5l-4.9-4.2-1.4-1.8-1.1-2.7.4-3.1,33.6-4.8Z"/>
        <path class="st1" d="M225.3,37.7s.4,20.6,0,29.5c-.4,8.9-.7,15.7-5.7,21.8-5,6-10.9,11.7-19.9,11.8-16.6,0-18.6-2.3-23.9-10.5s-6.7-15.8-6.7-19.8,1.1-16.1,0-20c-1.1-3.9-2.5-17.4,0-23.8s7.3-13.9,27.5-13.2,27,4.6,28.8,24.2Z"/>
        <path class="st6" d="M157.1,157.6s72.5-6.7,95.2-8.1c22.7-1.4-.5-16.8-.5-16.8,0,0,2.1-9.5,2.1-10.1s.8-7.1-.8-8-10.9-6.8-12.2-7.1-11.2-4.1-11.2-4.1c0,0-3.5-5.5-4.5-5.3s-4.4,2.2-4.4,2.2l-13.1,14.4-6,3.1-8.7-4.8s-10.3-7-11.2-6.4-4.2,7.3-4.2,7.3l-4.8,6.5-25.5,40.5,9.7-3.3Z"/>
        <path class="st10" d="M32,147.2l111.1,13.1,10.3-33.7s-13.9-6.3-17.7-6.5c-3.8-.1-8.7-6.5-8.7-6.5l-3.4-5.1s-5.3,1.9-9.8,6-9.8,5.7-11.3,5.7-4.1-2.8-6.9-5.3-10-13-12.9-12.9-4.7,3.6-4.7,3.9c0,.3-2.8-1.1-4.8,0-2,1.2-5.2,2.8-10,4.4s-24.4,2.7-24.8,11.1c-.3,8.4-6.4,25.6-6.4,25.6Z"/>
        <path class="st1" d="M84.8,101.5l3.1-6s7.7,6.1,9.8,6.6,7.3,2.4,13.4,1.1c6.1-1.3,9.7-2.6,9.7-2.6,0,0,3.9,5.6,3.9,6.1s-4.8,4.5-6.3,5.1c-1.5.6-8,6.5-11.2,6.5s-9.3-1.3-11.4-3.1c-2.1-1.8-7.2-7.2-8.6-9.4s-2.3-4.2-2.3-4.2Z"/>
        <path class="st7" d="M228.9,104.9s3.9.7,5,4.5c1.1,3.7,3.3,2.5,5.4,7.7,2.1,5.2,2.9,6.7.8,11.4-1.1,2.5,1.8,10.9-3.7,16.4-2.8,2.8-6.7,4.9-6.7,4.9l17.1.3s16.3-5.6,12.5-8c-3.7-2.5-8.1-4.1-8.1-7.9s-.3-7.9-.2-10.1c0-2.2,6.1-5.3,5-8.1s-8.9-5.8-11.1-6.7-6.1-1.9-7.7-3.3-6.7-2.2-8.2-1.1Z"/>
        <path class="st4" d="M127.3,159.2s17.4-23.9,19.7-28.3c2.1-4,4.6-7.9,8.7-9.7,5.6-2.4,12.9-5.6,14.8-6,3.1-.7,5.2-1.4,5.3-3.5,0-2.1,1.4-10,2.6-10.9.5-.4,1.2,0,2,.7,1.1,1,2.5,2.6,4.1,3.8,2.8,2,7.9,9,17.5,9.6,3.7.2,12.2-8.1,15-11.1.9-1,1.3-2.2.9-3.9-1.2-5.9-11.2-15.6,1.5-8.3,1.4.8,8.8,5.1,10.6,7.7,1.8,2.6,5.8.8,10.6,3.9,4.9,3.1,12.1,2.4,21.9,5.9,14.8,5.2,27.5,34,27.8,41.4l-52.2-.3s18.1-3.1,11.9-8.2c-10.1-8.4,4.4-18,1.9-24.7-2.5-6.7-15.2-6.9-15.8-9.3-.6-2.4-5.6-3.6-5.6-3.1,0,.5-.6,14.3-6.5,20.9,0,0-4.6,4.2,0-2.7,1.8-2.7,4.5-11.6,3-18.5-1.2-5.4-3-4.8-4.2-2.7-1.7,2.8-7.7,9-9.9,10.9-2.5,2.1-6.1,3.2-3.7,5.6s3.6,5.2,10.1,8.8c1.4.8-.7,1.1-4.8-.5-4.1-1.6-9.1-6.6-12.9-4.7s-8.1,7.5-8.5,8.5c-.4,1.1-1.7-1.5.6-5s6-7.2.5-9.8c-5.5-2.6-7.7-4.5-9.8-6.5-2-2-2.9-2.2-3,1.5,0,3.7,3.3,14,8.6,19.1,0,0,2.6,3.5-.9,1.1s-9.5-11.8-10.2-13.3c-.7-1.5-2.7-1.3-2.4,2.4.3,3.7-14.1,12.9-26.6,38.8h-8.8"/>
        <path class="st4" d="M205.5,121.5s-2.2,2.3-2,7.1c.2,4.8.4,6.9.6,10.9.2,3.9-.2,7.8-.2,7.8,0,0-2.4-1.3-2.1-7s-.9-5.9-1-9.1c0-3.2-1.2-8-1-8.1.2-.1,2.4-4.9,5.7-1.5Z"/>
        <path class="st5" d="M118.3,127.8s4.9-7.2,9.5-6.2c4.6.9,8.6,11.3,8.8,13.6.2,2.3-6.7,18.6-7.9,22.1l12.9-18.5s-.2-3.2-1.8-7.1c-1.7-4.1-6.3-14-9.4-14.7-3.1-.7-8.9,4.1-12,10.9Z"/>
        <path class="st8" d="M215.9,94.9s-.3.3-.6.6c-1.3,1.3-5.7,5.4-12.5,6.4-3.2.5-10.7.7-20-2.2,0,0,21.6,17.7,33.2-4.7Z"/>
        <path class="st4" d="M147.5,125.8c2.8,1.1,3.1,1.4,6.1,2.9,0-2.3,0-4.6-.4-7-4.5-2.7-13.5-6.4-17.8-7-4.3-.7-4.6.2-6.5-2.2-1.7-2.2-1.5-6.5-2.7-7.9-.8-.9-.2-.2-.2-.2-1-1.1-3.3-5.5-4.3-6.2-.2,0-1.2.8-.9.9.3.1-1.2,4.2-1.2,4.6,0,.4.5.4.1.8-1.8,1.9,2.2,2.2-.7,4.1-4.9,3.1-8.1,8.6-16.3,7.9-3.1-.3-11.2-6.6-13.7-10.1-.9-1.2-3-4.9-2.7-5.7,1-2.5,3.4-7.3.7-7.4-1.7,0-3.7,4.1-5.7,5.4-2,1.3-1.8,2.3-4.6,4.3-2.8,2.1-5.4,1.3-10.6,3.9-5.3,2.6-12.8,1.5-20.9,5.4-12.1,5.9-24.6,20.7-28,35.3,5.5.3,11.3.2,16.9.3,1.9-4.5,3.7-9.1,3.5-14.1-.3-6.9,6.8-15.4,12-17.2,7-2.4,16.3-2.9,20.6-5.1,4.3-2.2,3.3-6.5,6.3-2.5,3,4,1.4,13.9,6.8,17.8,2.5,1.8.8-.7-1.1-3.8-.7-1.2-3.7-12.3-2.3-15.4,1.1-2.4,2-5.2,3.9-2.9,2.7,3.2,6.4,7.5,8.9,9.6,2.9,2.4,5.4,2.2,3.7,5.6-1.7,3.5-6.4,5.8-8.9,8.2-.5.5,3.7-.2,5.1-.8,1-.5,5.7-4.3,8.3-3.5,0,0,2.3,4.2,1.6,6.2-.7,2-.2,7-.4,9.5-.2,2.5.1,4.9.3,7.4,1.9-2,1.8-4.1,1.9-6.7,0-2.6.6-5.6.8-8.3.2-2.6.8-5,.9-7.5,1.9,1,4.8,4.8,5.6,6,.8,1.2.4-3.4-.9-4.8-1.2-1.4-3.8-6.8-.2-8.2,3.6-1.4,6.4-4.4,9.1-6.1,2.7-1.7,2.9-3,3,1.7,0,4.7-3.8,13.2-7.9,17-.2,1.7-1.9,2.7,1.4.7,3.3-2,6.7-9.9,9.6-12.3,2.8-2.4,6.6-1,9.4,4.3,2.8,5.2,10.1,16,4.7,23.7,2.4.5,10,.5,12.2.3-3.9-5.5-6.5-12.4-7.9-17.8-1.3-5.4.6-4.1,3.5-3Z"/>
        <path class="st8" d="M101.9,131.9s-.9-6.1-4-5.9c-3.1.1-4.5,2.2-5.5,2.1s-2.9.5-4,.4c-1.1-.2,10.9-5.6,12.5-5.4,1.6.1,2.8,4,2.4,5.7-.4,1.7-1.5,3.3-1.5,3.3Z"/>
        <path class="st7" d="M212.4,125.1s-6.5-4.1-7-3.7c-.7.6-2.8,3.6-1.7,12,1,7.7.3,11.8.3,11.8,0,0-1.3-26.4,8.4-20.1Z"/>
        <path class="st7" d="M199.8,123l.2,1.8s-4.8,2.4-6.7,5.6c0,0,2.9-5.2,6.5-7.4Z"/>
        <path class="st7" d="M167,130.4s1.5.3,2.3-.7c0,0,4,1,4.5-4.9l1-.9s5.5,2.1,5.5-3.3v-1.5l-.9-.2s-3,4-5.5,3.4l-2.3,3.4s-1.5,2.2-2.2,2.2c-.7,0-2.7,1.9-2.7,1.9l.3.7Z"/>
        <path class="st4" d="M182.5,108.2s-1.1-4.8-2.2-5.7h-2.6c0-.1,4.8,5.7,4.8,5.7Z"/>
        <path class="st2" d="M107.5,117.4c-2,2.4-3.4,6.2-3.4,6.2,0,0-3.5-7.6-4.4-8.4-.4-.4,2.3,1,4.9,1.1,2.6,0,5-1.1,5-1.1,0,0-1.5,1.4-2.1,2.2Z"/>
        <path class="st2" d="M205.5,113.7s-4,3.1-4,6.5,0,3,0,3c0,0-1.5-8.2-5.1-9.6-2.2-.8,9.1,0,9.1,0Z"/>
        <path class="st8" d="M117.8,30s11.2-1.5,11.8,10.1,1.7,22.6,1.4,27.2c-.2,4.6.3,14.6-5.3,20.8-5.6,6.2-13.2,12.9-19.5,11.6-6.4-1.2-8.1.2-11.7-.8,0,0,.8,1.4,8.3,2.4,2.2.3,5.6.5,8.8.5,3.9,0,10.2-4.9,13.3-7.2,2.5-1.8,5.2-3.8,7.3-10.8,1-3.5,1.3-11.4,1.5-15.7.1-4.3.5-16,.5-16,0,0,.5-7.3.1-7.8-2.2-2.8-1-6.3-1.1-9.2-.1-2.8-1.2-4.4-2.5-5.3-2.5-1.5-4.7-2.3-12.8,0Z"/>
        <g>
          <path class="st4" d="M111.2,57.7s7-6,17.8.1c0,0-12.4-3-17.8-.1Z"/>
          <circle class="st4" cx="119.6" cy="57.5" r="2.4"/>
        </g>
        <g>
          <path class="st4" d="M85.7,56.4s7-6,17.8.1c0,0-12.4-3-17.8-.1Z"/>
          <circle class="st4" cx="94.6" cy="56.8" r="2.4"/>
        </g>
        <path class="st4" d="M114.5,52.8c-.9.2-2.1-.2-2.5-1-.4-.7-.7-1.4-.5-1.8.6-.7,10.6-3.1,18.9,3.6l.8.7s-3.6-1-6-1.4c-2-.4-7.6-1-10.7-.2Z"/>
        <path class="st4" d="M97.7,71.4s-1.8,5.8-4.4,6c-2.6.1-2.5,3.8-1.4,7,0,0-5-6,.6-7.8,3.3-1,5.2-5.1,5.2-5.1Z"/>
        <path class="st4" d="M85,57.1s-1.5.3-2.4-.1c-.9-.4,1.1,1.3,2.4.1Z"/>
        <path class="st4" d="M84.4,58.1s-1.2.1-1.7,1.2c0,0,1.3-1.1,1.7-1.2Z"/>
        <path class="st4" d="M99.7,58.6s-6.4,2-10.1-.5c0,0-1.6.3-1.7.6,0,0,1.3-.3,1.5-.3s4.2,3.2,10.2.2Z"/>
        <path class="st4" d="M100.8,52.6c.9.3,2.1,0,2.6-.7.5-.6.8-1.3.6-1.7-.5-.8-10.3-3.9-19.1,2l-.8.7s3.6-.7,6.1-.9c2-.2,7.7-.4,10.7.7Z"/>
        <path class="st4" d="M113.9,58.6s6.8,3.4,11.1.3c0,0,1.7.6,1.8,1,0,0-1.4-.6-1.6-.6s-4.9,3.9-11.2-.8Z"/>
        <ellipse class="st8" cx="107.9" cy="92" rx=".9" ry="4" transform="translate(9.6 194.1) rotate(-86.6)"/>
        <path class="st4" d="M128.6,58.9s1.5.5,2.4.2c.9-.3-1.2,1.1-2.4-.2Z"/>
        <path class="st4" d="M129,60s1.2.3,1.5,1.4c0,0-1.2-1.3-1.5-1.4Z"/>
        <path class="st4" d="M119.8,72.8s1.1,6,3.7,6.5,2.1,4.1.5,7.1c0,0,5.7-5.4.3-7.8-3.1-1.4-4.5-5.7-4.5-5.7Z"/>
        <path class="st3" d="M80.5,54.5s-.9-14-6.9-6.6c-4.9,6-1.6,10.5-1.3,12.7.3,2.2.5,3.8,2,6.5s2.4,5.8,5.3,3.2l.9-15.7Z"/>
        <path class="st2" d="M79.1,55.4s-.4-9.9-3.9-4.6c-2.8,4.3-1,7.5-.8,9,.1,1.5.2,2.7,1.1,4.6.9,1.9,1.3,4.1,3,2.2l.7-11.2Z"/>
        <path class="st3" d="M132.8,18.5c-5.2-8-14.3-6.8-14.3-6.8,0,0-5.9-2.5-11.6-2.8-8.5-.3-16,2.6-20.7,6.6-3.4,2.9-6.8,10.3-7.2,15.8-.5,8.1-.1,18.2,2,23.1.1-10.7,3.3-12.9,3.7-16.3.3-2.8.6-6,2-8.6,2.4-4.4,7.7-3,11-1.3,6.6,3.4,11.1,3.6,16.5,2.6,4.6-.9,12.2-4.4,16.3,0,2.2,2.3,1.6,6.1,1.4,9.1,0,.4,0,.9,0,1.3,0,3.5,4.4,3.7,3.3,15.3,2.7-4.7,2.6-13.2,3.1-21.3.3-5.5-2.8-12.7-5.3-16.6Z"/>
        <g>
          <path class="st4" d="M200.4,53.2s5.9-5.5,15.2-.3c0,0-10.6-2.4-15.2.3Z"/>
          <ellipse class="st4" cx="207.6" cy="52.8" rx="2" ry="2.1"/>
        </g>
        <path class="st4" d="M202.9,48.7c-.9.3-1.9,0-2.4-.7-.4-.6-.8-1.3-.6-1.6.5-.8,9.6-3.7,17.7,2l.8.6s-3.4-.6-5.6-.9c-1.9-.2-7.1-.4-9.9.6Z"/>
        <path class="st4" d="M202.7,53.9s5.9,2.9,9.5,0c0,0,1.5.5,1.5.8,0,0-1.2-.5-1.4-.5-.2,0-4.1,3.5-9.6-.4Z"/>
        <g>
          <path class="st4" d="M191.2,53.8s-5.6-5.2-14.4-.3c0,0,10.1-2.3,14.4.3Z"/>
          <ellipse class="st4" cx="184.4" cy="53.5" rx="1.9" ry="2"/>
        </g>
        <path class="st4" d="M189.7,49.3c.9.2,1.9-.1,2.3-.9.4-.7.7-1.3.4-1.7-.5-.7-9.8-3.1-17.5,3.2l-.7.7s3.3-.9,5.5-1.2c1.9-.3,7-.8,9.9,0Z"/>
        <path class="st4" d="M189.1,54.5s-5.6,2.7-9,0c0,0-1.4.4-1.5.8,0,0,1.2-.4,1.3-.5.2,0,3.9,3.4,9.1-.4Z"/>
        <path class="st4" d="M176.2,54s-2.1-.2-2.5-.8c0,0,.3.8,1.8,1,0,0-1.5.4-2.2,1.7,0,0,2.1-1.7,3.3-1.7l-.4-.2Z"/>
        <path class="st4" d="M176.6,55.2s-1.7,0-2.5,1.7c0,0,1-1.3,2.5-1.7Z"/>
        <path class="st4" d="M185.1,64.7c-1.8,1.6-2.3,4-3.5,6-.9,1.5-2.5,2.5-3.5,3.8-.9,1.6-.7,3.6.7,5.2,0,0,0,0,0,0-2.1-1.3-2.8-4.3-1.3-6.3,1-1.3,2.3-2.1,3.2-3.5,1.3-1.9,2.2-4.3,4.4-5.4,0,0,0,.1,0,.1h0Z"/>
        <path class="st4" d="M187.9,69s2.7-.4,4.5.6c1.9,1.1,1.8,1.4,3.6,1.5,2.1,0,2.3-.6,3.6-1.5.4-.3,1.9-.7,3-.8,1.8-.2,1.8-.2,2.9.2,6.1,2,3.8,15.2,11.5,13.1,3.6-1,6.4-3.9,7.7-13.4,0,0,.3,12.3-5.4,20.8s-13.1,10.7-17.1,11.1-15.9.8-18.8-1.5-7.4-7.6-8.7-10.1c-1.4-2.5-3.7-7.6-4.4-10-.6-2.4-.5-7.3-.4-10,0,0-.4,5.5,3.8,9.6,2.5,2.5,5.2,3.5,6.2.2,2.6-8.4,5.2-9.6,8-9.6Z"/>
        <path class="st4" d="M216.9,54.3s2.5-.3,2.9-.9c0,0-.3.9-2.1,1.1,0,0,1.7.4,2.6,2,0,0-2.4-2-3.8-2l.5-.2Z"/>
        <path class="st4" d="M216.5,55.6s2,0,2.9,2c0,0-1.1-1.5-2.9-2Z"/>
        <path class="st4" d="M223.1,50.4l1.2,8.4c7.5-19,.5-36,.5-36-.8-6.4-8.4-8.5-8.4-8.5-1.5-8-16.8-10-16.8-10-42.2-1.4-31,42-31,42,0,6.6.8,15.6.8,15.6l2.1-14.5c0-4,4.1-8.2,3.8-11.1-1.7-17.3,12-15.2,12-15.2,11.3,4.2,18.5,0,18.5,0,0,0,16.1-5,14.5,16.1,0,0-.3,3.1,3,13.3Z"/>
        <g>
          <path class="st3" d="M74.5,55.9c-.2.9-.2,1.7,0,2.6,0,.5.3,1,.7,1.3.4-1.2-.3-2.5.3-3.8,0-.1.4-.6.4-.8.2.9.9,2.3,1.9,1.3.7-.7-.6-4.6-1.4-4.5-1.3.1-1.7,2.8-1.9,3.8Z"/>
          <path class="st3" d="M77.7,58.4c-.2.3-.3.6-.6.8-.5.6-1.1,1.1-1.3,1.9-.2.6-.2,1.2,0,1.8.2.4.6,1.1,1.2,1.1.5,0,.6-.7.7-1.1,0-.2,0-.3,0-.5-.2-.7-.3-1.5-.2-2.2.2-.8,1-1.2.9-2,0-.2-.4-.2-.5-.1-.1,0-.3.3-.3.4Z"/>
        </g>
        <path class="st8" d="M100,72.5c0,.3,0,.7.3.8,2.4.3,4.9,1.2,6.6,3.1.9.9,1.8.7,2.8,0,1.1-.9,2.3-1.8,3.9-2,.6,0,1,0,1.5,0,0,0,0,0,0,0,0,0,0,0,0,0,.3,0,.7-.4,1-.8.7-.9,1.2-1,.5-1.9,0,0,0-.5,0-.5.8.6,1,1.6.3,2.9-.4.7-.9,1.5-1.7,1.7-.4,0-.9,0-1.3.1-2.4.5-3.9,3.8-6.5,3-1.2-.3-1.9-1.6-3-2.2-1-.7-2.1-1.2-3.2-1.6-.6-.2-1.3-.2-1.7-.8-.9-1.1-.4-2.8.5-3.7"/>
        <path class="st4" d="M101.8,68.7c-1.1.4-1.7,1.2-1.6,2.4,0,.7.2.9.6.9,2.4.3,4.7,1.3,6.4,3,.9.9,1.7.7,2.6,0,1.2-.9,2.4-1.8,4-2,.5,0,.9,0,1.4,0,0,0,.1,0,0,0-.1,0,0,0,0,0,.3-.1.7-.5,1-.9.7-.9.6-1.9-.1-2.8,0,0,.1-.2.1-.2,2.5,1.4.8,5.9-2,5.3-1.2.2-2.2,1.1-3.1,1.9-.9.9-2.3,1.5-3.5,1.1-1.3-.4-1.9-1.6-3-2.2-1-.7-2.1-1.2-3.3-1.6-.6-.2-1.3-.3-1.7-.8-1.1-1.7.3-4.2,2.4-4.2,0,0,0,.2,0,.2h0Z"/>
        <g>
          <path class="st3" d="M135.1,57.1s2.6-13.8,7.7-5.7c4.1,6.6.3,10.6-.2,12.7s-.9,3.7-2.8,6.2c-1.9,2.5-3.1,5.4-5.6,2.5l.9-15.7Z"/>
          <path class="st2" d="M136.7,58.2s1.6-9.8,4.4-4.1c2.3,4.6,0,7.5-.2,9-.3,1.5-.5,2.7-1.6,4.4s-1.8,3.9-3.2,1.8l.7-11.2Z"/>
          <g>
            <path class="st3" d="M140.1,55.6c-.8-.2-2.6,3.5-2,4.3.9,1.1,1.8-.2,2.1-1,0,.1.2.7.3.8.3,1.3-.5,2.5-.3,3.8.4-.3.7-.8.9-1.2.3-.8.4-1.7.3-2.6,0-1,0-3.7-1.2-4.1Z"/>
            <path class="st3" d="M137.6,61.3c0,0-.4-.1-.5,0-.2.8.6,1.3.6,2.1,0,.8-.2,1.5-.5,2.2,0,.2,0,.3,0,.5,0,.4,0,1.1.5,1.2.5.2,1.1-.5,1.3-.9.4-.5.4-1.1.3-1.7-.1-.8-.6-1.4-1-2.1-.2-.3-.3-.6-.4-.9,0-.1-.1-.4-.3-.4Z"/>
          </g>
          <path class="st8" d="M141.2,54.1s-1.3-3-2.6-1.3c-1.3,1.7-1.6,4.1-1.6,4.1,0,0-.3,1.1-.4,2.3s-.6,10.2-.6,10.2c0,0,2.3-14.3,6.1-9.9,0,0,.6-2.6-1-5.4Z"/>
        </g>
        <path class="st8" d="M119.8,104.3c.2-.2-.3-.4-.2-.6.2-.9.8-2.9.8-2.9-5.7,2-12.4,2.9-12.4,2.9,4.4,5.3-1.9,12.7-1.9,12.7l-1.9,7.3c1.7-4.7,5.4-8.4,5.4-8.4h0c0,0,.1,0,.2,0,1.5-.6,3.4-2,6-4.3,2-1.8,3.9-2.7,4.2-3.3.7-1.5-1.5-1.7-.1-3.3Z"/>
        <path class="st3" d="M169.3,54.7s-.9-14.3-6.8-6.7c-4.8,6.2-1.5,10.7-1.3,12.9.3,2.2.4,3.9,2,6.6,1.5,2.7,2.4,5.9,5.2,3.2l.9-16Z"/>
        <path class="st2" d="M167.9,55.6s-.4-10.1-3.8-4.7c-2.8,4.4-1,7.6-.8,9.2.1,1.6.2,2.8,1.1,4.7.9,1.9,1.3,4.2,2.9,2.2l.7-11.4Z"/>
        <g>
          <path class="st3" d="M163.4,56.1c-.2.9-.2,1.8,0,2.6,0,.5.3,1,.7,1.4.3-1.3-.3-2.6.3-3.9,0-.1.4-.7.4-.8.1.9.9,2.4,1.9,1.4.7-.7-.6-4.7-1.3-4.6-1.3.1-1.6,2.9-1.8,3.9Z"/>
          <path class="st3" d="M166.5,58.7c-.2.3-.3.6-.6.9-.5.6-1,1.2-1.3,1.9-.2.6-.2,1.2,0,1.8.2.4.6,1.2,1.1,1.1.5,0,.6-.8.7-1.1,0-.2,0-.4,0-.5-.1-.7-.3-1.5-.2-2.3.2-.8,1-1.2.9-2,0-.2-.4-.2-.4-.1-.1,0-.2.3-.3.4Z"/>
        </g>
        <g>
          <path class="st3" d="M224.8,54.5s1.7-14.2,7.2-6.3c4.5,6.5.9,10.8.5,13-.4,2.2-.7,3.9-2.4,6.5-1.7,2.6-2.7,5.7-5.4,2.9v-16.1Z"/>
          <path class="st2" d="M226.2,55.5s1-10.1,4.1-4.4c2.5,4.6.5,7.7.3,9.2-.2,1.5-.4,2.7-1.3,4.6-1,1.9-1.6,4.1-3,2.1v-11.4Z"/>
          <g>
            <path class="st3" d="M229,53.1c-.8-.1-2.3,3.8-1.6,4.5,1,1.1,1.8-.4,2-1.3,0,.1.3.7.3.8.5,1.3-.2,2.6,0,3.9.4-.3.6-.9.7-1.3.2-.9.2-1.7,0-2.6-.1-1-.3-3.8-1.6-4Z"/>
            <path class="st3" d="M227,59.1c0,0-.4,0-.5.1-.1.8.7,1.3.8,2,.1.8-.1,1.5-.3,2.3,0,.2,0,.3,0,.5,0,.4.1,1.1.6,1.2.5.1,1-.6,1.2-1,.3-.5.3-1.2.1-1.8-.2-.8-.7-1.4-1.2-2-.2-.3-.3-.6-.5-.9,0-.1-.2-.4-.3-.4Z"/>
          </g>
        </g>
        <path class="st8" d="M182,73.3s-11,8.2-11.7-10.4c0,0-.8,6.9,0,9.5.5,1.7,1,5.6,5.9,8,0,0,2.6,1.5,3.6-1.2.7-2,2.3-5.9,2.3-5.9Z"/>
        <path class="st8" d="M205.6,21s7.7-2,11.4,2.4,3.2,11.6,3.2,11.9c0,.4,0,5.4,1.2,9.2,1.1,3.8,1.5,3.5,1.7,5.8.2,2.3,1.3,8.4,1.3,8.4,0,0-.2,13.4-.8,16.4,0,0-1.8,3.7-2.4,4.6-.6,1-2.4,1.7-3.2,2-2.1.8-3.5.9-5.1-.7-1.2-1.2-1.8-3.5-1.8-3.5,0,0,6.3,3.9,8.4-3.8,1.6-5.9,2.5-10.3,1-13.9-1.6-3.5-2.3-9.5-2.4-13.9s.6-11.7-2.2-15.6-3.7-8.3-10.1-9.5Z"/>
        <path class="st8" d="M226.2,55.5s.4-3.9,1.3-5.4,1.7-1,2.8.9c1.1,1.9,1.3,3.9,1.3,4.7,0,.8-.3,2.5-.8,3.7-.4,1.2-.3,1.8-.5,2.7-.3.9-.6,2.2-1,2.7,0,0,.3-8.1-1.2-6.6-1.6,1.5,0-4.5-1.8-2.8Z"/>
        <polygon class="st4" points="180.6 97.9 180.8 102 182.8 104.1 182.7 99.4 180.6 97.9"/>
        <path class="st8" d="M167.6,60.1s-1.8,6.9-3.3,4.6c0,0,.7,2.2,1.2,2.6.5.4.6.9,1.7-.3l.4-6.8Z"/>
        <path class="st9" d="M207.2,75.1c0,1.3-4.9,5.5-11.3,5.2-6.2-.3-11.5-4.3-11.1-5.6.2-.6,6.1.7,11.1.7s11.3-.9,11.3-.4Z"/>
        <path class="st4" d="M192.3,50.6c.8,4.1.9,8.7-.9,12.7-.7,1-2.2.6-2.7,1.8-.2.5-.5,1.6-.1,2,.4.2.9.1,1.6.2,1.6,0,3.4.3,4.6,1.5.5.5,1.5.8,2.2.5.3-.1.4-.2.9-.6,1.2-1,2.9-1,4.2-1,2-.5,1.4-3.1,0-4.3,0,0,0-.1,0-.1,1.5.9,2.5,3.1,1.2,4.6-.6.8-1.6.8-2.4.9-.9,0-1.7.4-2.4.9-1.3,1.4-3.5,1.5-4.9.2-.6-.6-1.5-.8-2.3-1-.9-.1-1.7,0-2.6-.1-1.6-.1-2.2-1.8-1.8-3.2.2-1.4,1.2-2.6,2.6-2.8.2,0,.4,0,.6-.2.5-.4.6-1.1.8-1.7,1-3.3,1.4-6.9,1.2-10.3h.2Z"/>
        <path class="st4" d="M206.3,65.2c3.3.8,4.3,4.6,6.6,6.5.8.8,2,1.9,2.3,3.2.6,2.2-.5,4.8-2.6,5.5,0,0,0,0,0,0,2-1.2,2.6-4.2,1.2-6.1-1-1.2-2.3-2.1-3.2-3.5-1.2-1.9-2.1-4.3-4.2-5.5,0,0,0-.1,0-.1h0Z"/>
        <g>
          <path class="st9" d="M94.8,80.1l25.4,1.1s-5.7,6.7-8.5,7c-2.8.3-10.9-.4-10.9-.4l-2.8-2.6-2.6-3.6-.6-1.4Z"/>
          <path class="st4" d="M94.8,80.1s18.5-.2,25.4,1.1c0,0-13.1,1.8-25.4-1.1Z"/>
          <path class="st4" d="M120.1,81.1s-13.3,14.7-25.4-1.1c0,0,.7,3.6,1.8,5,1.6,2.3,5.1,5.1,11.6,4.9,5-.1,8.3-3.4,12.1-8.9Z"/>
        </g>
      </g>
    </g>
  </g>
</svg>